<?xml version="1.0" standalone="no"?><!DOCTYPE svg PUBLIC "-//W3C//DTD SVG 1.1//EN" "http://www.w3.org/Graphics/SVG/1.1/DTD/svg11.dtd"><svg t="1543907148555" class="icon" style="" viewBox="0 0 1024 1024" version="1.1" xmlns="http://www.w3.org/2000/svg" p-id="1782" xmlns:xlink="http://www.w3.org/1999/xlink" width="200" height="200"><defs><style type="text/css"></style></defs><path d="M512 576a272 272 0 0 1-192.333-464.333 272 272 0 1 1 384.666 384.666A270.22 270.22 0 0 1 512 576z m0-480c-114.692 0-208 93.308-208 208s93.308 208 208 208 208-93.308 208-208S626.692 96 512 96z" p-id="1783"></path><path d="M928 992a32 32 0 0 1-32-32 384 384 0 1 0-768 0 32 32 0 0 1-64 0 448.11 448.11 0 0 1 860.78-174.392A445.223 445.223 0 0 1 960 960a32 32 0 0 1-32 32z" p-id="1784"></path></svg>