<?xml version="1.0" standalone="no"?><!DOCTYPE svg PUBLIC "-//W3C//DTD SVG 1.1//EN" "http://www.w3.org/Graphics/SVG/1.1/DTD/svg11.dtd"><svg t="1533696520934" class="icon" style="" viewBox="0 0 1024 1024" version="1.1" xmlns="http://www.w3.org/2000/svg" p-id="4358" xmlns:xlink="http://www.w3.org/1999/xlink" width="200" height="200"><defs><style type="text/css"></style></defs><path d="M912.896 653.824h-86.528v-161.28c0-11.776-9.216-20.992-20.992-20.992h-271.872v-122.88H619.52c7.168 0 12.8-5.632 12.8-12.8v-214.528c0-7.168-5.632-12.8-12.8-12.8h-215.04c-7.168 0-12.8 5.632-12.8 12.8v214.528c0 7.168 5.632 12.8 12.8 12.8h86.528v122.88H210.432c-7.168 0-12.8 5.632-12.8 12.8v169.472h-86.528c-7.168 0-12.8 5.632-12.8 12.8V881.152c0 7.168 5.632 12.8 12.8 12.8h214.528c7.168 0 12.8-5.632 12.8-12.8v-215.04c0-7.168-5.632-12.8-12.8-12.8h-86.528v-140.288h251.904l0.512 140.288h-87.04c-7.168 0-12.8 5.632-12.8 12.8v215.04c0 7.168 5.632 12.8 12.8 12.8h215.04c7.168 0 12.8-5.632 12.8-12.8v-215.04c0-7.168-5.632-12.8-12.8-12.8h-86.016l-0.512-140.288h250.88v140.288h-86.528c-7.168 0-12.8 5.632-12.8 12.8v215.04c0 7.168 5.632 12.8 12.8 12.8h215.04c7.168 0 12.8-5.632 12.8-12.8V666.112c0-6.656-5.632-12.288-12.288-12.288z" fill="" p-id="4359"></path></svg>