<?xml version="1.0" standalone="no"?><!DOCTYPE svg PUBLIC "-//W3C//DTD SVG 1.1//EN" "http://www.w3.org/Graphics/SVG/1.1/DTD/svg11.dtd"><svg t="1533696394192" class="icon" style="" viewBox="0 0 1024 1024" version="1.1" xmlns="http://www.w3.org/2000/svg" p-id="1056" xmlns:xlink="http://www.w3.org/1999/xlink" width="200" height="200"><defs><style type="text/css"></style></defs><path d="M1004.5732 313.854836l-241.329755 241.329756a42.187652 42.187652 0 0 1-60.578193 0l-240.510578-241.329756a42.228611 42.228611 0 0 1 0-60.537233L703.48443 12.807024a42.26957 42.26957 0 0 1 60.578192 0l240.46962 241.370715c17.120814 16.17876 17.120814 43.498337 0.040958 59.677097zM383.759367 1017.405619H42.653765A42.187652 42.187652 0 0 1 0.015564 974.767419V633.661817a42.187652 42.187652 0 0 1 42.638201-42.6382h341.105602c23.87903 0 42.679159 18.75917 42.679159 42.6382v341.105602c0 23.87903-18.800129 42.6382-42.679159 42.6382z m0-511.658403H42.653765A42.228611 42.228611 0 0 1 0.015564 463.068057V121.962455a42.187652 42.187652 0 0 1 42.638201-42.6382h341.105602c23.87903 0 42.679159 18.75917 42.679159 42.6382v341.105602c0 23.919989-18.800129 42.679159-42.679159 42.679159z m170.552801 85.276401h341.105601a42.187652 42.187652 0 0 1 42.638201 42.6382v341.105602a42.187652 42.187652 0 0 1-42.638201 42.6382h-341.105601a42.187652 42.187652 0 0 1-42.638201-42.6382V633.661817a42.228611 42.228611 0 0 1 42.638201-42.6382z m0 0" p-id="1057"></path></svg>