<?xml version="1.0" standalone="no"?><!DOCTYPE svg PUBLIC "-//W3C//DTD SVG 1.1//EN" "http://www.w3.org/Graphics/SVG/1.1/DTD/svg11.dtd"><svg t="1541645011757" class="icon" style="" viewBox="0 0 1040 1024" version="1.1" xmlns="http://www.w3.org/2000/svg" p-id="578" xmlns:xlink="http://www.w3.org/1999/xlink" width="203.125" height="200"><defs><style type="text/css"></style></defs><path d="M945.988252 77.152171 77.968769 77.152171c-42.99728 0-77.968769 37.859259-77.968769 84.384899l0 700.924837c0 46.52564 34.971489 84.384899 77.968769 84.384899l868.019483 0c42.99728 0 77.968769-37.859259 77.968769-84.384899L1023.957021 161.53707C1023.957021 115.01143 988.985532 77.152171 945.988252 77.152171L945.988252 77.152171 945.988252 77.152171 945.988252 77.152171zM77.968769 127.492696l868.019483 0c17.551748 0 31.840172 16.537651 31.840172 36.867676l0 193.863313L46.128597 358.223684 46.128597 164.360372C46.128597 144.030347 60.417021 127.492696 77.968769 127.492696L77.968769 127.492696 77.968769 127.492696 77.968769 127.492696zM945.988252 901.04976 77.968769 901.04976c-17.551748 0-31.840172-15.325034-31.840172-34.177404L46.128597 412.731112l931.699828 0 0 454.142268C977.828424 885.724727 963.54 901.04976 945.988252 901.04976L945.988252 901.04976 945.988252 901.04976 945.988252 901.04976zM163.720805 243.806795c0-12.656251 5.270027-25.248034 14.288424-34.177404 9.018398-8.951883 21.697161-14.177907 34.44244-14.177907 12.744255 0 25.423019 5.225001 34.463929 14.177907 9.018398 8.930393 14.266935 21.521153 14.266935 34.177404 0 12.656251-5.248537 25.224498-14.266935 34.177404-9.039887 8.952906-21.719674 14.156418-34.463929 14.156418-12.745279 0-25.424042-5.203512-34.44244-14.156418C168.990832 269.031293 163.720805 256.463046 163.720805 243.806795L163.720805 243.806795 163.720805 243.806795 163.720805 243.806795zM295.822472 243.806795c0-12.656251 5.248537-25.248034 14.288424-34.177404 9.018398-8.951883 21.674649-14.177907 34.44244-14.177907 12.744255 0 25.423019 5.225001 34.441417 14.177907 9.018398 8.930393 14.265912 21.521153 14.265912 34.177404 0 12.656251-5.248537 25.224498-14.265912 34.177404-9.018398 8.952906-21.697161 14.156418-34.441417 14.156418-12.767791 0-25.424042-5.203512-34.44244-14.156418C301.069987 269.031293 295.822472 256.463046 295.822472 243.806795L295.822472 243.806795 295.822472 243.806795 295.822472 243.806795zM427.924139 243.806795c0-26.703175 21.806655-48.355311 48.729841-48.355311 26.900673 0 48.708352 21.652136 48.708352 48.355311l0 0c0 26.702152-21.806655 48.333822-48.708352 48.333822C449.730795 292.139593 427.924139 270.508947 427.924139 243.806795L427.924139 243.806795 427.924139 243.806795 427.924139 243.806795 427.924139 243.806795zM451.848015 779.201621l43.570331 0.265036 83.85585-258.998799-43.438325 0.065492L451.848015 779.201621 451.848015 779.201621 451.848015 779.201621zM163.522284 653.494595l-0.044002 18.853393 0.021489 19.073404 169.58742 65.774029 0.021489-36.713156-108.573811-47.121204L333.836251 630.166283l0.176009-38.036291L163.522284 653.494595 163.522284 653.494595 163.522284 653.494595zM709.723224 594.841753l0.154519 38.058804 109.302405 43.173289-108.573811 47.121204 0.022513 36.713156 169.586396-65.75254 0.022513-19.073404-0.044002-18.874883L709.723224 594.841753 709.723224 594.841753 709.723224 594.841753z" p-id="579"></path></svg>