<?xml version="1.0" standalone="no"?><!DOCTYPE svg PUBLIC "-//W3C//DTD SVG 1.1//EN" "http://www.w3.org/Graphics/SVG/1.1/DTD/svg11.dtd"><svg t="1557294420411" class="icon" style="" viewBox="0 0 1024 1024" version="1.1" xmlns="http://www.w3.org/2000/svg" p-id="2378" xmlns:xlink="http://www.w3.org/1999/xlink" width="200" height="200"><defs><style type="text/css"></style></defs><path d="M874.666667 1024H149.333333c-83.2 0-149.333333-66.133333-149.333333-149.333333V149.333333c0-83.2 66.133333-149.333333 149.333333-149.333333h725.333334c83.2 0 149.333333 66.133333 149.333333 149.333333v725.333334c0 83.2-66.133333 149.333333-149.333333 149.333333zM149.333333 85.333333C113.066667 85.333333 85.333333 113.066667 85.333333 149.333333v725.333334c0 36.266667 27.733333 64 64 64h725.333334c36.266667 0 64-27.733333 64-64V149.333333c0-36.266667-27.733333-64-64-64H149.333333z" p-id="2379" fill="#ffffff"></path><path d="M770.133333 311.466667h-42.666666c-17.066667-38.4-53.333333-64-98.133334-64s-81.066667 25.6-98.133333 64h-277.333333c-23.466667 0-40.533333 19.2-40.533334 40.533333v2.133333c0 23.466667 19.2 40.533333 40.533334 40.533334h277.333333c17.066667 38.4 53.333333 64 98.133333 64s81.066667-25.6 98.133334-64h42.666666c23.466667 0 40.533333-19.2 40.533334-40.533334v-2.133333c0-21.333333-19.2-40.533333-40.533334-40.533333zM770.133333 631.466667h-277.333333c-17.066667-38.4-53.333333-64-98.133333-64s-81.066667 25.6-98.133334 64h-42.666666c-23.466667 0-40.533333 19.2-40.533334 40.533333v2.133333c0 23.466667 19.2 40.533333 40.533334 40.533334h42.666666c17.066667 38.4 53.333333 64 98.133334 64s81.066667-25.6 98.133333-64h277.333333c23.466667 0 40.533333-19.2 40.533334-40.533334v-2.133333c0-21.333333-19.2-40.533333-40.533334-40.533333z" p-id="2380" fill="#ffffff"></path></svg>