<?xml version="1.0" standalone="no"?><!DOCTYPE svg PUBLIC "-//W3C//DTD SVG 1.1//EN" "http://www.w3.org/Graphics/SVG/1.1/DTD/svg11.dtd"><svg t="1542194586580" class="icon" style="" viewBox="0 0 1024 1024" version="1.1" xmlns="http://www.w3.org/2000/svg" p-id="1782" xmlns:xlink="http://www.w3.org/1999/xlink" width="200" height="200"><defs><style type="text/css"></style></defs><path d="M526.925944 110.523209c-212.498742 0-384.763131 172.264389-384.763131 384.763131s172.264389 384.763131 384.763131 384.763131 384.763131-172.264389 384.763131-384.763131S739.424686 110.523209 526.925944 110.523209zM494.184239 211.852012c7.05672-7.566326 16.136515-11.348466 27.237341-11.348466 13.619182 0 23.454178 4.043083 29.507034 12.105712 6.548136 9.587356 9.574053 21.444405 9.078773 35.55989l-9.834996 341.220429c-1.51347 12.613272-4.799306 21.940708-9.834996 27.993564-6.052856 6.560416-13.121855 9.834996-21.184485 9.834996-7.566326 0-13.879102-3.02694-18.914792-9.078773-5.556553-7.057743-8.073886-16.646122-7.566326-28.750811l-9.078773-341.220429C482.57483 233.036497 486.110353 220.930785 494.184239 211.852012zM563.033303 758.863411c-11.100826 11.088546-24.966625 16.645099-41.611723 16.645099-17.153682-0.50756-31.280424-6.312776-42.36897-17.401322-9.587356-11.609409-14.375405-24.459065-14.375405-38.585807 0.496304-16.137539 5.544273-29.754674 15.131629-40.8555 10.592242-10.593266 24.459065-15.888875 41.612747-15.888875 16.137539 0 29.754674 5.296633 40.856523 15.888875 10.591219 11.608386 15.886829 25.226544 15.886829 40.8555C577.657372 735.161592 572.60838 748.272191 563.033303 758.863411z" p-id="1783"></path></svg>