<?xml version="1.0" standalone="no"?><!DOCTYPE svg PUBLIC "-//W3C//DTD SVG 1.1//EN" "http://www.w3.org/Graphics/SVG/1.1/DTD/svg11.dtd"><svg t="1533696965415" class="icon" style="" viewBox="0 0 1024 1024" version="1.1" xmlns="http://www.w3.org/2000/svg" p-id="5816" xmlns:xlink="http://www.w3.org/1999/xlink" width="200" height="200"><defs><style type="text/css"></style></defs><path d="M332.868267 896.887467H134.007467v59.665066h715.9808v-59.665066H332.868267zM889.719467 41.7792H94.208a59.665067 59.665067 0 0 0-59.5968 59.665067v556.782933c0 32.9728 26.624 59.665067 59.5968 59.665067h795.511467a59.665067 59.665067 0 0 0 59.665066-59.665067V101.444267a59.665067 59.665067 0 0 0-59.665066-59.665067z m7.918933 601.634133a20.2752 20.2752 0 0 1-20.343467 20.2752H106.632533a20.2752 20.2752 0 0 1-20.2752-20.2752V116.189867c0-11.264 9.079467-20.343467 20.2752-20.343467h770.730667c11.127467 0 20.2752 9.079467 20.2752 20.343467v527.223466z m-231.697067 203.5712v-56.388266H328.977067v56.388266h336.964266z m-47.035733-676.181333H562.517333v404.548267h56.388267V170.8032z m179.2 66.491733h-56.456533V577.536h56.456533V237.294933z m-365.704533 62.8736h-56.456534v274.158934h56.456534V300.168533zM255.317333 367.274667h-56.456533v208.0768h56.456533V367.274667z" fill="#e6e6e6" p-id="5817"></path></svg>