<?xml version="1.0" standalone="no"?><!DOCTYPE svg PUBLIC "-//W3C//DTD SVG 1.1//EN" "http://www.w3.org/Graphics/SVG/1.1/DTD/svg11.dtd"><svg t="1533696466915" class="icon" style="" viewBox="0 0 1064 1024" version="1.1" xmlns="http://www.w3.org/2000/svg" p-id="2295" xmlns:xlink="http://www.w3.org/1999/xlink" width="207.8125" height="200"><defs><style type="text/css"></style></defs><path d="M568.311688 534.649351c-49.038961 33.038961-107.844156 52.155844-171.012987 52.155844-63.376623 0-122.38961-19.324675-171.636363-52.571429C92.051948 599.064935 0 737.662338 0 897.87013c0 166.857143 792.935065 169.350649 792.935065 0 0-160-91.844156-298.181818-224.623377-363.220779z m-171.220779 7.064935c147.324675 0 266.597403-121.142857 266.597403-270.753247C663.688312 121.350649 544.415584 0 397.090909 0S130.493506 121.350649 130.493506 270.961039s119.272727 270.753247 266.597403 270.753247z m472.519481-22.857143c-40.103896 27.012987-87.896104 43.428571-139.636364 45.090909 98.909091 82.701299 162.077922 208 162.077922 348.051948 0 6.233766-1.038961 12.051948-2.701299 17.87013 100.155844-16.207792 174.961039-48.415584 174.961039-96.623377-0.207792-138.597403-79.584416-258.077922-194.701298-314.38961z m-226.077922-1.454546c24.103896 9.350649 50.077922 14.337662 77.506493 14.337663 121.142857 0 219.428571-99.74026 219.428571-222.961039S842.181818 85.818182 721.038961 85.818182c-6.441558 0-12.883117 0.207792-19.324675 0.831169 36.779221 51.948052 58.38961 115.532468 58.38961 184.311688-0.207792 99.74026-45.714286 188.675325-116.571428 246.441558z" fill="" p-id="2296"></path></svg>