<?xml version="1.0" standalone="no"?><!DOCTYPE svg PUBLIC "-//W3C//DTD SVG 1.1//EN" "http://www.w3.org/Graphics/SVG/1.1/DTD/svg11.dtd"><svg t="1533783461656" class="icon" style="" viewBox="0 0 1024 1024" version="1.1" xmlns="http://www.w3.org/2000/svg" p-id="1866" xmlns:xlink="http://www.w3.org/1999/xlink" width="200" height="200"><defs><style type="text/css"></style></defs><path d="M232.973545 937.312169c-12.641975 0-21.671958-9.029982-21.671958-21.671957s9.029982-21.671958 21.671958-21.671958h558.05291c10.835979 0 19.865961 10.835979 19.865961 21.671958s-9.029982 21.671958-19.865961 21.671957H232.973545zM162.539683 843.400353c-88.493827 0-160.733686-72.239859-160.733687-160.733686V263.675485c0-88.493827 72.239859-160.733686 160.733687-160.733686h698.920634c88.493827 0 160.733686 72.239859 160.733687 160.733686v418.991182c0 88.493827-72.239859 160.733686-160.733687 160.733686H162.539683zM162.539683 146.285714c-65.015873 0-117.389771 52.373898-117.389771 117.389771v418.991182c0 65.015873 52.373898 117.389771 117.389771 117.38977h698.920634c65.015873 0 117.389771-52.373898 117.389771-117.38977V263.675485c0-65.015873-52.373898-117.389771-117.389771-117.389771H162.539683z" fill="" p-id="1867"></path><path d="M511.097002 937.312169c-12.641975 0-21.671958-9.029982-21.671958-19.865961V830.758377c0-7.223986 3.611993-14.447972 10.835979-19.865961 3.611993-1.805996 7.223986-3.611993 10.835979-3.611993s7.223986 1.805996 10.835979 3.611993c7.223986 3.611993 10.835979 10.835979 10.835978 18.059965v86.687831c0 5.417989-1.805996 10.835979-7.223985 14.447971-1.805996 5.417989-7.223986 7.223986-14.447972 7.223986z" fill="" p-id="1868"></path></svg>