<?xml version="1.0" standalone="no"?><!DOCTYPE svg PUBLIC "-//W3C//DTD SVG 1.1//EN" "http://www.w3.org/Graphics/SVG/1.1/DTD/svg11.dtd"><svg t="1542194602168" class="icon" style="" viewBox="0 0 1024 1024" version="1.1" xmlns="http://www.w3.org/2000/svg" p-id="2516" xmlns:xlink="http://www.w3.org/1999/xlink" width="200" height="200"><defs><style type="text/css"></style></defs><path d="M509.62963 146.299259c-209.540741 0-380.017778 170.287407-380.017778 379.543704 0 209.256296 170.477037 379.543704 380.017778 379.543704 209.540741 0 380.017778-170.287407 380.017778-379.543704C889.647407 316.586667 719.17037 146.299259 509.62963 146.299259zM509.62963 867.555556c-188.397037 0-341.712593-153.220741-341.712593-341.712593 0-188.397037 153.315556-341.712593 341.712593-341.712593 188.397037 0 341.712593 153.315556 341.712593 341.712593C851.247407 714.24 698.026667 867.555556 509.62963 867.555556z" p-id="2517"></path><path d="M729.220741 518.637037 570.69037 360.011852c-3.887407-3.887407-12.325926-1.896296-18.773333 4.456296-6.447407 6.447407-8.438519 14.791111-4.456296 18.773333l125.060741 125.060741L305.398519 508.302222c-9.671111 0-17.540741 7.86963-17.540741 17.540741l0 0c0 9.671111 7.86963 17.540741 17.540741 17.540741l367.122963 0L547.460741 668.444444c-3.887407 3.887407-1.896296 12.325926 4.456296 18.773333 6.447407 6.447407 14.791111 8.438519 18.773333 4.456296l158.625185-158.625185c1.232593-1.232593 1.896296-2.844444 1.991111-4.740741 0.094815-1.706667 0.094815-3.318519 0-5.025185C731.117037 521.481481 730.453333 519.86963 729.220741 518.637037z" p-id="2518"></path></svg>