<?xml version="1.0" standalone="no"?><!DOCTYPE svg PUBLIC "-//W3C//DTD SVG 1.1//EN" "http://www.w3.org/Graphics/SVG/1.1/DTD/svg11.dtd"><svg t="1533783442882" class="icon" style="" viewBox="0 0 1024 1024" version="1.1" xmlns="http://www.w3.org/2000/svg" p-id="1682" xmlns:xlink="http://www.w3.org/1999/xlink" width="200" height="200"><defs><style type="text/css"></style></defs><path d="M85.333333 868.266667C85.333333 906.666667 117.333333 938.666667 155.733333 938.666667h710.4c38.4 0 70.4-32 70.4-70.4v-196.266667c0-38.4-32-70.4-70.4-70.4h-213.333333v-187.733333c0-23.466667-19.2-44.8-44.8-44.8s-44.8 19.2-44.8 44.8v187.733333H155.733333c-38.4 0-70.4 32-70.4 70.4v196.266667z m89.6-98.133334c0-25.6 19.2-44.8 44.8-44.8s44.8 19.2 44.8 44.8-19.2 44.8-44.8 44.8-44.8-21.333333-44.8-44.8z m160 0c0-25.6 19.2-44.8 44.8-44.8s44.8 19.2 44.8 44.8-19.2 44.8-44.8 44.8-44.8-21.333333-44.8-44.8z m275.2-541.866666c-102.4 0-187.733333 83.2-187.733333 187.733333 0 23.466667 19.2 44.8 44.8 44.8s44.8-19.2 44.8-44.8c0-53.333333 42.666667-98.133333 98.133333-98.133333s98.133333 44.8 98.133334 98.133333c0 23.466667 19.2 44.8 44.8 44.8s44.8-19.2 44.8-44.8c-2.133333-104.533333-85.333333-187.733333-187.733334-187.733333z m0-142.933334c-181.333333 0-328.533333 147.2-328.533333 328.533334 0 25.6 19.2 44.8 44.8 44.8s44.8-19.2 44.8-44.8c0-132.266667 106.666667-241.066667 241.066667-241.066667S853.333333 279.466667 853.333333 413.866667c0 23.466667 19.2 44.8 44.8 44.8s44.8-19.2 44.8-44.8C938.666667 232.533333 791.466667 85.333333 610.133333 85.333333z" p-id="1683"></path></svg>