<?xml version="1.0" standalone="no"?><!DOCTYPE svg PUBLIC "-//W3C//DTD SVG 1.1//EN" "http://www.w3.org/Graphics/SVG/1.1/DTD/svg11.dtd"><svg t="1539776683867" class="icon" style="" viewBox="0 0 1024 1024" version="1.1" xmlns="http://www.w3.org/2000/svg" p-id="2330" xmlns:xlink="http://www.w3.org/1999/xlink" width="200" height="200"><defs><style type="text/css"></style></defs><path d="M512 0c281.991529 0 512 230.008471 512 512s-230.008471 512-512 512S0 793.991529 0 512 230.008471 0 512 0z m0 64C265.246118 64 64 265.246118 64 512S265.246118 960 512 960 960 758.753882 960 512 758.753882 64 512 64z m0 242.718118c113.061647 0 205.281882 92.220235 205.281882 205.281882S625.061647 717.281882 512 717.281882 306.718118 625.061647 306.718118 512s92.220235-205.281882 205.281882-205.281882z" fill="#A8A8A8" p-id="2331"></path></svg>