<?xml version="1.0" standalone="no"?><!DOCTYPE svg PUBLIC "-//W3C//DTD SVG 1.1//EN" "http://www.w3.org/Graphics/SVG/1.1/DTD/svg11.dtd"><svg t="1557295270655" class="icon" style="" viewBox="0 0 1024 1024" version="1.1" xmlns="http://www.w3.org/2000/svg" p-id="3347" xmlns:xlink="http://www.w3.org/1999/xlink" width="200" height="200"><defs><style type="text/css"></style></defs><path d="M512 42.666667C251.733333 42.666667 42.666667 251.733333 42.666667 512s209.066667 469.333333 469.333333 469.333333 469.333333-209.066667 469.333333-469.333333S772.266667 42.666667 512 42.666667zM512 938.666667C277.333333 938.666667 85.333333 746.666667 85.333333 512 85.333333 277.333333 277.333333 85.333333 512 85.333333c234.666667 0 426.666667 192 426.666667 426.666667C938.666667 746.666667 746.666667 938.666667 512 938.666667zM661.333333 341.333333l-85.333333 0c-12.8 0-21.333333 8.533333-21.333333 21.333333l0 298.666667c0 12.8 8.533333 21.333333 21.333333 21.333333l85.333333 0c12.8 0 21.333333-8.533333 21.333333-21.333333L682.666667 362.666667C682.666667 349.866667 674.133333 341.333333 661.333333 341.333333zM640 640l-42.666667 0L597.333333 384l42.666667 0L640 640zM448 341.333333l-85.333333 0c-12.8 0-21.333333 8.533333-21.333333 21.333333l0 298.666667c0 12.8 8.533333 21.333333 21.333333 21.333333l85.333333 0c12.8 0 21.333333-8.533333 21.333333-21.333333L469.333333 362.666667C469.333333 349.866667 460.8 341.333333 448 341.333333zM426.666667 640l-42.666667 0L384 384l42.666667 0L426.666667 640z" p-id="3348"></path></svg>