<?xml version="1.0" standalone="no"?><!DOCTYPE svg PUBLIC "-//W3C//DTD SVG 1.1//EN" "http://www.w3.org/Graphics/SVG/1.1/DTD/svg11.dtd"><svg t="1542107205449" class="icon" style="" viewBox="0 0 1024 1024" version="1.1" xmlns="http://www.w3.org/2000/svg" p-id="4194" xmlns:xlink="http://www.w3.org/1999/xlink" width="200" height="200"><defs><style type="text/css"></style></defs><path d="M663.712 227.552h37.888V94.816h-94.752a94.848 94.848 0 0 0-189.664-0.032h-94.848V227.52h341.376v0.032z m-303.424-94.816h94.816V94.816a56.896 56.896 0 1 1 113.824 0v37.92h94.784v56.896h-303.424V132.736zM170.656 948.192h682.656v18.912H170.656v-18.912z" p-id="4195"></path><path d="M739.52 132.736v37.92h132.8v815.456H151.68V170.656h132.768V132.736H113.76V1024h796.448V132.736H739.52z" p-id="4196"></path><path d="M512 398.24a170.72 170.72 0 0 1 166.432 132.736h-52.672v37.952h94.848l51.776-94.784-32.864-18.976-28.864 50.016a208.576 208.576 0 0 0-407.264 63.712h37.92A170.72 170.72 0 0 1 512 398.24zM279.36 724.352l32.928-57.024a208.64 208.64 0 0 0 408.32-60.512h-37.952a170.72 170.72 0 1 1-337.12 37.984h52.672v-37.984H303.392l-56.896 98.56 32.864 18.976z" p-id="4197"></path></svg>