<?xml version="1.0" standalone="no"?><!DOCTYPE svg PUBLIC "-//W3C//DTD SVG 1.1//EN" "http://www.w3.org/Graphics/SVG/1.1/DTD/svg11.dtd"><svg t="1533696484766" class="icon" style="" viewBox="0 0 1024 1024" version="1.1" xmlns="http://www.w3.org/2000/svg" p-id="2971" xmlns:xlink="http://www.w3.org/1999/xlink" width="200" height="200"><defs><style type="text/css"></style></defs><path d="M896 64H192a64.189 64.189 0 0 0-64 64v64h0.039c0 0.063-0.035 0.109-0.035 0.172a32 32 0 0 0 64 0c0-0.062-0.035-0.109-0.035-0.172H192v-32a32.093 32.093 0 0 1 32-32h640c17.281 0 32 14.719 32 32v704a32.091 32.091 0 0 1-32 32H224a31.689 31.689 0 0 1-32-32v-31.809-0.071V832h-0.02a31.971 31.971 0 0 0-63.941 0H128v64a64.189 64.189 0 0 0 64 64h704a64.189 64.189 0 0 0 64-64V128a64.189 64.189 0 0 0-64-64z" fill="" p-id="2972"></path><path d="M384 544h384a32 32 0 0 0 0-64H384a32 32 0 0 0 0 64zM384 320h384a32 32 0 0 0 0-64H384a32 32 0 0 0 0 64zM384 768h64a32 32 0 1 0 0-64h-64a32 32 0 0 0 0 64zM256 736a32.1 32.1 0 0 0-32-32H96a32 32 0 0 0 0 64h128a32.1 32.1 0 0 0 32-32zM128 416.172v192a32 32 0 0 0 64 0v-192a32 32 0 0 0-64 0zM96 320h128a32 32 0 0 0 0-64H96a32 32 0 0 0 0 64zM745.412 649.332L640 754.754l-41.41-41.422a32 32 0 0 0-45.258 45.254l63.848 63.863c0.066 0.07 0.086 0.164 0.152 0.23a32.216 32.216 0 0 0 45.336 0c0.066-0.066 0.086-0.16 0.152-0.23l127.85-127.863a32 32 0 0 0-45.258-45.254z" fill="" p-id="2973"></path></svg>