<?xml version="1.0" standalone="no"?><!DOCTYPE svg PUBLIC "-//W3C//DTD SVG 1.1//EN" "http://www.w3.org/Graphics/SVG/1.1/DTD/svg11.dtd"><svg t="1556087663581" class="icon" style="" viewBox="0 0 1024 1024" version="1.1" xmlns="http://www.w3.org/2000/svg" p-id="1258" xmlns:xlink="http://www.w3.org/1999/xlink" width="200" height="200"><defs><style type="text/css"></style></defs><path d="M512 10.24C235.52 10.24 10.24 235.52 10.24 512s225.28 501.76 501.76 501.76 501.76-225.28 501.76-501.76S788.48 10.24 512 10.24z m0 942.08c-242.8928 0-440.32-197.4272-440.32-440.32S269.1072 71.68 512 71.68 952.32 269.1072 952.32 512 754.8928 952.32 512 952.32z" fill="#ffffff" p-id="1259"></path><path d="M367.0016 327.2704h48.7424c16.7936 0 30.72-13.9264 30.72-30.72s-13.9264-30.72-30.72-30.72h-122.88c-16.7936 0-30.72 13.9264-30.72 30.72v122.88c0 16.7936 13.9264 30.72 30.72 30.72s30.72-13.9264 30.72-30.72V371.0976l110.1824 110.1824c6.144 6.144 13.9264 9.0112 21.7088 9.0112s15.5648-2.8672 21.7088-9.0112c11.8784-11.8784 11.8784-31.5392 0-43.4176l-110.1824-110.592zM727.4496 577.536c-16.7936 0-30.72 13.9264-30.72 30.72v48.7424l-110.1824-110.1824c-11.8784-11.8784-31.5392-11.8784-43.4176 0-11.8784 11.8784-11.8784 31.5392 0 43.4176l110.1824 110.1824h-48.7424c-16.7936 0-30.72 13.9264-30.72 30.72s13.9264 30.72 30.72 30.72h122.88c16.7936 0 30.72-13.9264 30.72-30.72v-122.88c0-16.7936-13.9264-30.72-30.72-30.72zM720.0768 267.4688l-110.1824 110.1824V329.3184c0-16.7936-13.9264-30.72-30.72-30.72s-30.72 13.9264-30.72 30.72v122.88c0 16.7936 13.9264 30.72 30.72 30.72h122.88c16.7936 0 30.72-13.9264 30.72-30.72s-13.9264-30.72-30.72-30.72h-48.7424L763.4944 311.296c11.8784-11.8784 11.8784-31.5392 0-43.4176-11.8784-12.288-31.5392-12.288-43.4176-0.4096zM452.1984 548.0448h-122.88c-16.7936 0-30.72 13.9264-30.72 30.72s13.9264 30.72 30.72 30.72h48.7424l-110.1824 110.1824c-11.8784 11.8784-11.8784 31.5392 0 43.4176 6.144 6.144 13.9264 9.0112 21.7088 9.0112s15.5648-2.8672 21.7088-9.0112l110.1824-110.1824v48.7424c0 16.7936 13.9264 30.72 30.72 30.72s30.72-13.9264 30.72-30.72v-122.88c0-16.7936-13.9264-30.72-30.72-30.72z" fill="#ffffff" p-id="1260"></path></svg>