<?xml version="1.0" standalone="no"?><!DOCTYPE svg PUBLIC "-//W3C//DTD SVG 1.1//EN" "http://www.w3.org/Graphics/SVG/1.1/DTD/svg11.dtd"><svg t="1542107007342" class="icon" style="" viewBox="0 0 1024 1024" version="1.1" xmlns="http://www.w3.org/2000/svg" p-id="1649" xmlns:xlink="http://www.w3.org/1999/xlink" width="200" height="200"><defs><style type="text/css"></style></defs><path d="M568.32 412.69C532 402.45 512 384 512 384s-20 18.45-56.32 28.69C412.08 425 384 420.57 384 420.57s0.34 33.24 10.24 91.95c10.57 62.7 43.52 98.8 69.12 112.62C491.1 640.12 512 640 512 640s20.9 0.12 48.64-14.86c25.6-13.82 58.55-49.93 69.12-112.62 9.9-58.7 10.24-91.95 10.24-91.95s-28.08 4.43-71.68-7.88z" p-id="1650"></path><path d="M704 64H320a64.19 64.19 0 0 0-64 64v768a64.19 64.19 0 0 0 64 64h384a64.19 64.19 0 0 0 64-64V128a64.19 64.19 0 0 0-64-64z m0 768H320V192h384z" p-id="1651"></path></svg>