<?xml version="1.0" standalone="no"?><!DOCTYPE svg PUBLIC "-//W3C//DTD SVG 1.1//EN" "http://www.w3.org/Graphics/SVG/1.1/DTD/svg11.dtd"><svg t="1542107025529" class="icon" style="" viewBox="0 0 1024 1024" version="1.1" xmlns="http://www.w3.org/2000/svg" p-id="1811" xmlns:xlink="http://www.w3.org/1999/xlink" width="200" height="200"><defs><style type="text/css"></style></defs><path d="M896.342552 639.793548 896.342552 159.587672c0 0-73.727165-22.249747-118.259404-66.10865-44.530193-43.858904-74.046437-93.480045-74.046437-93.480045L319.963289-0.001023c0 0-29.516244 49.621141-74.046437 93.480045-44.531216 43.858904-118.259404 66.10865-118.259404 66.10865l0 480.204853c0 0-1.280156 34.70236 25.707498 89.351004 40.817638 82.658581 201.62202 167.271678 262.415618 198.772113 48.724725 25.25929 96.04138 96.04138 96.04138 96.04138s0.063445-0.121773 0.179079-0.339738c0.115634 0.217964 0.178055 0.339738 0.178055 0.339738s47.316655-70.78209 96.04138-96.04138c60.793598-31.501458 221.597981-116.113531 262.415618-198.772113C897.622708 674.495908 896.342552 639.793548 896.342552 639.793548zM421.255253 849.163019c-35.151591-21.129226-174.730557-82.115206-205.015304-158.915359-13.093203-33.230845-22.570042-59.290361-22.570042-59.290361l-0.127913-23.209608L362.766141 607.747691c11.588943 0 21.00029-9.411347 21.00029-21.00029L383.76643 372.638999c0-11.588943-9.411347-21.001313-21.00029-21.001313l-22.025643 0c-11.588943 0-21.001313 9.41237-21.001313 21.001313l0 171.080423L193.189977 543.719422l-1.50426-288.123117 288.123117 0 0 0.065492 0 640.068817 0 0.171915C479.80781 895.90253 456.406844 870.291223 421.255253 849.163019zM830.810023 543.719422 704.260815 543.719422 704.260815 372.638999c0-11.588943-9.41237-21.001313-21.001313-21.001313l-22.025643 0c-11.588943 0-21.00029 9.41237-21.00029 21.001313L640.23357 586.746378c0 11.588943 9.411347 21.00029 21.00029 21.00029L830.458005 607.746668l-0.127913 23.209608c0 0-9.475815 26.059516-22.570042 59.290361-30.284747 76.800153-169.864736 137.786133-205.015304 158.915359-35.151591 21.129226-58.552557 46.739511-58.552557 46.739511l0-0.171915L544.19219 255.661797l0-0.065492 288.123117 0L830.810023 543.719422zM191.684694 191.601806c0 0 85.508489-20.905122 127.670751-65.404616 32.749892-34.541701 47.124274-63.098083 47.124274-63.098083l291.041586 0c0 0 14.373359 28.556383 47.124274 63.098083 42.162262 44.499493 127.670751 65.404616 127.670751 65.404616L191.684694 191.601806z" p-id="1812"></path></svg>