<?xml version="1.0" standalone="no"?><!DOCTYPE svg PUBLIC "-//W3C//DTD SVG 1.1//EN" "http://www.w3.org/Graphics/SVG/1.1/DTD/svg11.dtd"><svg t="1543908766369" class="icon" style="" viewBox="0 0 1024 1024" version="1.1" xmlns="http://www.w3.org/2000/svg" p-id="4247" xmlns:xlink="http://www.w3.org/1999/xlink" width="200" height="200"><defs><style type="text/css"></style></defs><path d="M512.035158 1024c101.956466-34.50699 197.449829-100.585327 266.639596-196.594333 54.523271-75.553257 98.218062-169.56415 129.806988-279.706431 53.240026-185.572487 53.925595-350.894311 53.925595-357.855476 0.105472-15.791533-11.115599-28.893525-26.080932-30.44631-2.355546-0.205085-241.203216-26.286018-407.228188-153.573392a27.809505 27.809505 0 0 0-34.055804 0C329.908096 132.378986 90.175631 159.186505 87.808366 159.39159c-14.965334 1.459032-26.180545 14.654777-26.180546 30.44631 0 6.961166 0.591816 172.27713 53.931455 357.849617 31.594785 109.925477 75.184104 204.065281 129.806988 279.712291 69.189767 95.909393 164.812041 162.093202 266.668895 196.600192m391.823386-807.249108l-0.105472 1.664117c-2.84775 60.376978-13.189885 181.212969-50.585642 311.623492-65.644729 228.681322-180.199264 374.156792-340.517018 432.348152l-0.591816 0.205085-0.603536-0.205085c-159.813831-58.080028-274.274612-203.033997-340.106847-430.906698-39.165346-135.590381-48.616827-264.119983-50.972374-313.164559l-0.105472-1.658257 1.476611-0.210945c69.476886-10.699569 246.523703-46.542541 389.221738-147.959926l0.884795-0.732446 0.990267 0.732446c142.897261 101.417386 319.944078 137.260357 389.426823 148.071258l1.587943 0.193366z" fill="" p-id="4248"></path><path d="M675.692864 362.671689l-210.69831 227.691055-121.867275-106.761311a34.688637 34.688637 0 0 0-22.389406-8.203394 34.366361 34.366361 0 0 0-26.245 12.058989c-12.305091 14.414535-10.664412 36.335175 3.873174 48.640266l149.641622 130.539433c6.099809 5.162279 14.531726 8.203394 22.975362 8.203394 1.054722 0 2.097725 0 3.158307-0.123051a34.51285 34.51285 0 0 0 23.795701-13.348093l232.835755-256.637316a33.932753 33.932753 0 0 0 6.685766-25.541853c-1.166054-9.146784-5.976758-17.227127-13.242622-22.852311-15.363785-11.713274-37.038323-8.783491-48.523074 6.334192z" fill="" p-id="4249"></path></svg>