<?xml version="1.0" standalone="no"?><!DOCTYPE svg PUBLIC "-//W3C//DTD SVG 1.1//EN" "http://www.w3.org/Graphics/SVG/1.1/DTD/svg11.dtd"><svg t="1533696669715" class="icon" style="" viewBox="0 0 1024 1024" version="1.1" xmlns="http://www.w3.org/2000/svg" p-id="5023" xmlns:xlink="http://www.w3.org/1999/xlink" width="200" height="200"><defs><style type="text/css"></style></defs><path d="M42.811359 1009.39479l-13.043188-13.0432 2.143441-141.8368C33.875525 724.557824 35.025406 709.676134 45.640353 676.83799 70.961388 598.505472 117.109898 537.7664 182.06356 497.282545l37.860864-23.59764-24.202209-19.14689C130.834975 403.204321 97.280005 334.998303 97.280005 254.437965c0-64.917898 22.381071-122.206479 66.677622-170.673961 89.934469-98.402639 236.492298-110.896749 346.835712-29.567872 12.008325 8.85077 32.024556 29.936092 44.480492 46.856269 80.728115 109.661445 64.022784 263.812731-37.517056 346.194406-15.838223 12.849925-29.373891 24.840084-30.079258 26.644797-2.301635 5.888819 44.226995 27.622769 52.411674 24.481997 4.382054-1.681541 17.82569 1.732204 29.87479 7.586104 21.549568 10.469606 22.230579 10.48855 41.689088 1.160858 14.985062-7.183304 21.462528-14.388664 26.713958-29.715876 3.812813-11.1283 9.772032-22.037018 13.242675-24.241597 3.470643-2.204575 27.457741-4.043602 53.304576-4.086723 51.883059-0.086579 59.704218 3.590108 65.699123 30.88468 2.610483 11.88545 8.718694 18.268078 25.098496 26.226002l21.648384 10.517617 21.815859-11.129646c19.421133-9.907932 23.034726-10.327368 32.919859-3.821092 15.828326 10.418053 52.464179 46.707999 62.285875 61.697874 7.800883 11.905587 7.662592 14.023782-2.174208 33.305549-10.414387 20.41385-10.420787 20.787661-0.74199 43.367424 8.240845 19.224986 13.222042 23.926426 31.948646 30.154035 21.373286 7.107738 22.304051 8.300339 25.418803 32.568525 1.778227 13.854874 2.028237 39.513754 0.555571 57.019802l-2.677555 31.829146-23.595571 7.896166c-19.851264 6.643149-24.992102 11.220838-32.396032 28.847565-8.501146 20.238899-8.441446 21.655091 1.755546 41.642803 9.158144 17.951437 9.665382 22.355405 3.830579 33.25783-9.105254 17.013299-64.623821 67.897344-74.081485 67.897344-4.175667 0-16.140339-4.269363-26.58816-9.487411-18.437171-9.20832-19.615693-9.211546-40.059853-0.11008-17.811302 7.9296-22.035302 12.847309-27.355085 31.847731l-6.291251 22.470093-28.964915 3.014707c-15.930726 1.658061-41.997517 1.663795-57.926246 0.01536l-28.961331-3.001856-6.294784-22.482944c-5.323725-19.014451-9.544397-23.9296-27.35872-31.860531-20.44416-9.10167-21.622682-9.098445-40.059853 0.11008-10.447821 5.218048-22.129101 9.487411-25.9584 9.487411-9.316864 0-45.112812-31.051827-65.566776-56.877056l-16.510638-20.846387 10.802437-22.234675c10.430536-21.469184 10.502006-22.94999 2.075919-43.012966-7.32673-17.445325-12.517192-22.046822-32.358205-28.68649l-23.631688-7.908147-2.803144-31.817114c-1.541729-17.499443-1.275469-43.152947 0.591688-57.007821 3.267912-24.248832 4.229268-25.468109 25.7139-32.613018 18.645187-6.200576 23.941699-11.090586 32.17665-29.707059 9.825172-22.21143 9.821839-22.354739-1.013775-43.594291l-10.871347-21.309594 10.967194-14.83392 10.967188-14.83392-27.152486-11.908864c-43.792287-19.206912-78.188989-25.321871-124.17942-22.076288-76.765128 5.417446-141.989345 40.019738-185.861018 98.601805-48.0256 64.128819-49.196667 69.547827-52.316109 242.088294-2.715556 150.200986-2.717676 150.223872-14.803159 160-16.073723 13.00224-24.221696 12.33408-39.821432-3.26569zM724.159027 956.394701c5.455462-2.13591 12.435507-11.357542 15.511194-20.492442 4.658944-13.837261 10.863565-18.727117 37.18103-29.302477 30.051379-12.075725 32.368179-12.290611 47.59895-4.414464 14.611354 7.55584 17.088 7.572838 28.348621 0.19456 6.786202-4.446515 15.976602-13.636915 20.423117-20.423117 7.378227-11.260621 7.361229-13.737267-0.19456-28.348621-7.876147-15.230771-7.661261-17.547571 4.414464-47.59895 10.681498-26.581658 15.390259-32.493312 29.705882-37.294643 16.274586-5.458278 17.078528-6.951475 18.539469-34.43159l1.527194-28.725862-19.447194-5.85344c-17.40416-5.238477-20.718029-9.114624-31.54473-36.896922-11.630643-29.845248-11.767859-31.734989-3.554714-48.958106l8.542874-17.914624-18.977126-19.434342-18.977178-19.434394-18.104013 9.287936c-17.840896 9.152922-18.480794 9.112474-44.02816-2.783642-14.258227-6.63936-28.439398-12.094106-31.513651-12.1216-3.074304-0.0256-8.350822-9.265971-11.725568-20.529971l-6.135962-20.480026-27.748966 0-27.748966 0-6.135962 20.480026c-3.374746 11.264-8.651264 20.502528-11.725517 20.530022-3.074253 0.0256-17.255424 5.48224-31.513651 12.1216-25.547366 11.896115-26.187264 11.936563-44.02816 2.783642l-18.104013-9.287936-18.977178 19.434394-18.977126 19.434342 8.542874 17.914624c8.213146 17.223117 8.07593 19.112858-3.554714 48.958106-10.826701 27.782298-14.14057 31.658445-31.54475 36.896922l-19.447163 5.85344 1.527163 28.725862c1.460941 27.480115 2.264924 28.973312 18.539469 34.43159 14.315643 4.801331 19.024404 10.712986 29.705902 37.294643 12.075725 30.051379 12.290611 32.368179 4.414464 47.59895-7.55584 14.611354-7.572838 17.088-0.19456 28.348621 4.446515 6.786202 13.636915 15.976602 20.423117 20.423117 11.260621 7.378227 13.737267 7.361229 28.348621-0.19456 15.230771-7.876147 17.547571-7.661261 47.59895 4.414464 26.317466 10.57536 32.522086 15.465216 37.18103 29.302477 5.635789 16.738406 16.812134 24.376013 35.670221 24.376013 5.632 0 14.703565-1.74761 20.159027-3.883571zm-61.10761-136.295322c-53.560371-28.930202-69.852058-91.638477-36.362701-139.963597 14.894336-21.492531 52.356659-41.697792 77.311283-41.697792 7.40393 0 24.666522 4.820173 38.361293 10.711501 66.193101 28.475546 75.730586 117.090867 17.39136 161.588378-23.37367 17.827942-72.264192 22.560973-96.701235 9.36151zM727.04 756.19799c12.709734-12.709734 13.027533-26.14313 0.970598-41.032806C710.037504 692.96937 670.72 707.46368 670.72 736.285184c0 13.698509 18.160845 30.152806 33.28 30.152806 7.04 0 17.408-4.608 23.04-10.24zM423.857055 432.505861C460.101212 419.1424 507.325501 375.060485 525.884877 337.267139 538.753024 311.063055 540.16 302.899323 540.16 254.437965 540.16 189.638487 531.517235 166.647941 491.08673 123.898644 387.97568 14.873913 209.086423 58.454093 166.851881 202.88725c-10.31915 35.289298-10.31915 67.812132 0 103.10143 32.413522 110.84735 146.792607 167.153295 257.005174 126.517181z" p-id="5024"></path></svg>