<?xml version="1.0" standalone="no"?><!DOCTYPE svg PUBLIC "-//W3C//DTD SVG 1.1//EN" "http://www.w3.org/Graphics/SVG/1.1/DTD/svg11.dtd"><svg t="1533696506450" class="icon" style="" viewBox="0 0 1024 1024" version="1.1" xmlns="http://www.w3.org/2000/svg" p-id="3659" xmlns:xlink="http://www.w3.org/1999/xlink" width="200" height="200"><defs><style type="text/css"></style></defs><path d="M118.144 118.144 118.144 78.72c0-21.76 17.6-39.36 39.36-39.36L945.28 39.36C931.52 15.936 895.488 0 866.496 0L157.504 0c-43.52 0-78.72 35.264-78.72 78.784L78.784 945.28c0 43.52 35.264 78.72 78.72 78.72l39.424 0L196.928 157.504 157.504 157.504C135.744 157.504 118.144 139.904 118.144 118.144z" p-id="3660"></path><path d="M512 157.504 236.224 157.504 236.224 1024l630.272 0c43.52 0 78.72-35.264 78.72-78.72L945.216 157.504l-157.632 0L512 157.504 512 157.504zM787.648 590.72 393.792 590.72 393.792 551.36l393.792 0L787.584 590.72 787.648 590.72zM787.648 472.64 393.792 472.64 393.792 433.28l393.792 0L787.584 472.64 787.648 472.64zM787.648 354.496 393.792 354.496 393.792 315.072l393.792 0L787.584 354.496z" p-id="3661"></path></svg>